# xmcd CD database file
#
# Track frame offsets:
#	150
#	23444
#	38782
#	52764
#	70124
#	87744
#	102243
#	113968
#	128848
#	143763
#	156248
#	171917
#	187167
#	202041
#	218837
#	242404
#	256821
#	275776
#
# Disc length: 3905 seconds
#
# Revision: 0
# Processed by: cddbd v1.5.1PL2 Copyright (c) Steve Scherf et al.
# Submitted via: CDex 1.51
#
DISCID=040f3f12
DTITLE=Bruno e Marrone - Ao Vivo em Goiânia
DYEAR=2006
DGENRE=Sertanejo
TTITLE0=Por Te Amar Demais
TTITLE1=Vê Se Toma Juízo
TTITLE2=Amor de Ping-Pong
TTITLE3=Por Um Gole a Mais
TTITLE4=Marianne
TTITLE5=Doce Desejo
TTITLE6=Me Namora
TTITLE7=Que Pescar Que Nada
TTITLE8=Não Posso Ter Medo de Amar
TTITLE9=Desiguais
TTITLE10=Tá Pegando
TTITLE11=O Sonho Não Acabou
TTITLE12=Porque Choras
TTITLE13=Essa História eu Conheço
TTITLE14=Choram as Rosas
TTITLE15=Recaída
TTITLE16=A Vida Disse Não
TTITLE17=Estou Arrependido
EXTD=YEAR: 2006
EXTT0=
EXTT1=
EXTT2=
EXTT3=
EXTT4=
EXTT5=
EXTT6=
EXTT7=
EXTT8=
EXTT9=
EXTT10=
EXTT11=
EXTT12=
EXTT13=
EXTT14=
EXTT15=
EXTT16=
EXTT17=
PLAYORDER=
